<svg  xmlns="http://www.w3.org/2000/svg" xmlns:xlink="http://www.w3.org/1999/xlink" width="875" height="300" viewBox="0 0 899 324"><path transform="translate(0 100)" d="M73.2,-47.2L71.5,-27.3C67.2,-27 61.2,-26.5 53.4,-25.9L53.4,-31.4C53.5,-36 53.5,-40.6 53.5,-45.3C63.8,-46.2 70.4,-46.8 73.2,-47.2ZM17.6,-53.8C18.3,-52.9 18.9,-51.8 19.5,-50.6C20,-49.3 20.3,-47.5 20.5,-45C21,-37.3 21.5,-26.8 22,-13.4L26,-13.5C27.9,-13.5 28.9,-14.5 28.9,-16.5L28.9,-17.3C32.5,-17.7 38.4,-18.1 46.7,-18.8C46.7,-1.4 46.6,12.9 46.5,20.4L50.1,20.4C52,20.4 53,19.5 53.1,17.6C53.2,14.5 53.2,1.3 53.3,-8.7C53.3,-12.6 53.4,-16.1 53.4,-19.3C62.3,-20 69.2,-20.5 74,-20.8C77,-21 79.2,-21.1 80.4,-21.3C81.4,-21.3 82.1,-21.7 82.5,-22.3C83,-23 83.2,-23.7 83.2,-24.5C83.2,-25.5 82.8,-26.4 82,-27.1C81.3,-27.8 80.4,-28.1 79.5,-27.9L78.7,-27.9C79.2,-31.8 79.8,-36.1 80.5,-40.9C81.1,-44.1 81.8,-46.8 82.5,-49C83.2,-51.1 83.5,-52.3 83.5,-52.6C83.5,-53.2 82.1,-53.9 79.2,-54.9C77.7,-55.4 76.3,-55.6 74.9,-55.6C73.2,-54.3 70.7,-53.4 67.4,-53L53.5,-51.8C53.5,-55.7 53.6,-59.2 53.6,-62.3L53.7,-66.8C53.8,-67.9 53.9,-69.3 53.9,-71.1C53.9,-72.3 53.2,-73.2 51.7,-73.8C50.2,-74.4 48,-75.1 45.2,-75.9L44.3,-74.7C44.9,-73.7 45.5,-72.6 45.9,-71.4C46.3,-70.1 46.6,-68.3 46.6,-65.8C46.7,-64.8 46.7,-60 46.7,-51.3C41.4,-50.8 35.2,-50.4 28,-49.8L28,-50.7C28,-51.6 27.4,-52.3 26.2,-52.8C25,-53.2 23.3,-53.8 21.1,-54.3L18.6,-55L17.6,-53.8ZM28.1,-41.8L28.1,-43.2C28.7,-43.2 29.4,-43.2 30.2,-43.3C34.5,-43.7 38.4,-44 41.9,-44.3C43.6,-44.4 45.2,-44.6 46.7,-44.7L46.7,-25.3C42.8,-25 38.5,-24.6 33.8,-24.2L28.7,-23.7L28.4,-33.4L28.1,-41.8Z"></path><path transform="translate(100 100)" d="M8,14.9L9.6,18.4C17.3,15.8 28.7,9.9 34.8,5.4C40.9,0.9 45.6,-3.5 49.1,-7.9C49.5,-8.4 49.9,-9 50.3,-9.5L61.1,4.2C63.5,7.1 67.6,11.9 69.5,14C71.1,15.8 72.4,15.5 74.4,15.3C79.5,14.8 91.8,13.3 91.8,13.3L91.5,9.8C89.7,9.8 85.7,9.5 81.8,8.7C80,8.3 72.9,7 65.2,-1.5C62.7,-4.3 58.4,-9.4 54,-14.6C55.5,-16.7 56.9,-18.9 58.3,-21.1C61.2,-25.7 63.5,-30.1 65.3,-34.4C66.7,-37.6 67.2,-39 67.6,-40.1C68.5,-42.5 69.2,-42.9 69.2,-43.9C69.2,-44.6 68.7,-45.9 66.8,-47.4C66.6,-47.6 66.4,-47.7 66.3,-47.9L85.1,-49.6C86,-49.7 86.8,-49.9 87.3,-50.5C87.7,-51.2 87.9,-51.8 87.9,-52.8C87.9,-53.8 87.5,-54.6 86.7,-55.3C85.9,-55.9 85.1,-56 84.2,-56C84,-55.9 70.7,-54.4 50,-52.5C28,-50.4 20.2,-49.8 16.8,-49.6C15.2,-49.5 13.2,-49.5 10.6,-49.6L10.4,-48.3L14.2,-44.5C14.9,-43.7 15.9,-43.2 17.1,-43.2L59.7,-47.2C59.8,-46.9 59.8,-46.5 59.8,-46.1C59.8,-45.4 59.7,-44.9 59.7,-44.5C59.5,-42.8 59.2,-41.4 57.9,-36.3C56.9,-32.7 54,-25.9 50.2,-19.3C47.3,-22.8 44.7,-26.1 42.9,-28.5C38.8,-33.9 37.5,-35 36.4,-38.6C36.2,-39.5 35,-40 33,-40C30.3,-40.1 28.1,-40.1 26.4,-40L26.1,-38.5C28.6,-37.6 30.4,-36.4 31.5,-34.9L36,-28.9C37.2,-27.1 38.4,-25.6 39.4,-24.3C40.4,-22.9 42.5,-19.9 45.9,-15.3L46.9,-14C46.2,-13 45.5,-12 44.8,-11.1C39.8,-4.6 34.4,-0 28.6,4.1C20.9,9.6 12.4,13.3 8,14.9ZM39.7,-76.6L45,-68C45.2,-67.8 45.8,-66.9 46.6,-65.2C48.2,-62.4 49.6,-60.2 50.7,-58.7C51.9,-57.2 53,-56.5 54,-56.8C55.7,-57.3 56.6,-58.5 56.6,-60.4C56.6,-62 56,-63.8 54.7,-65.8C53.5,-67.9 51.9,-69.7 50,-71.4C48.4,-72.8 46.7,-74.2 45,-75.5C43.2,-76.7 41.9,-77.6 41,-78L39.7,-76.6Z"></path><path transform="translate(200 100)" d="M79.1,15.4C80.7,15.3 81.4,13.7 81.6,12.1C82.6,2.9 81.6,-49.5 82.1,-58.8C82.3,-62.1 82.6,-64.9 83.1,-67.2C83.6,-69.4 83.8,-70.7 83.8,-70.9C83.8,-71.6 82.6,-72.4 80.3,-73.1C78.2,-73.7 76.9,-74 76.3,-74C74.7,-72.6 72.3,-71.6 69.2,-71.4L23.3,-67.9L23.3,-68C23.3,-69.2 22.6,-70.1 21.1,-70.9C19.7,-71.6 17.7,-72.3 15.4,-73L14.4,-71.8C16.2,-68.4 16.6,-66.1 16.8,-62.1C17,-57.9 16.9,7.2 16.8,11.4L19.6,11.4C21.6,11.4 22.6,10.4 22.7,8.4C22.8,4.2 23.1,-42.2 23.3,-61.8L75.1,-65.9C75.3,-40 75.4,-24.9 75.4,-12.3C75.4,-5.5 75.3,-0.9 75.3,-0.1C75.3,2.2 74.7,2.2 72.9,0.9C66.7,-3.6 65.3,-4.4 64.7,-4.8L61.9,-2C63.3,-0.5 66.3,3.2 72.1,9.5C77.3,15.1 77.2,15.5 79.1,15.4ZM23.9,-9.6L26.8,-7.6C32,-14.4 36.1,-22.2 39.2,-29.3C41,-26.2 42.9,-22.9 44.8,-19.2L46.1,-19.5C49.3,-24.3 47.3,-28.6 45.7,-30.9C44.7,-32.3 43.4,-34 41.9,-36C44.3,-42.3 45.7,-47.3 46.2,-49.2C46.8,-51.7 47.5,-53.3 45.3,-55.3C43.3,-57.1 40.3,-58.6 40.3,-58.6L39.1,-57.9C40.4,-53.9 39.7,-47.8 37.8,-40.9C35,-44.1 31.9,-47.5 28.7,-50.7L26.2,-48.6C28.9,-45 32.2,-40.5 35.8,-34.7C32.8,-26.1 28.4,-17 23.9,-9.6ZM40.3,-8.5L43,-6.3C49.4,-13.1 55.2,-22 59.6,-30.1C62.3,-25.2 65,-19.7 67.5,-14L68.9,-14.2C72.9,-18.1 70.7,-23.5 69.2,-26C67.9,-28.2 65.5,-31.8 62.7,-35.8C66.1,-42.5 68.3,-47.8 69,-49.6C69.9,-52.1 70.6,-53.6 68.7,-55.8C67.4,-57.3 63.8,-60 63.8,-60L62.5,-59.4C63.4,-55.3 61.8,-48.6 58.8,-41.1C56.5,-44.1 54.1,-47.1 51.9,-49.7L49.2,-47.8C51.1,-44.8 53.7,-40.7 56.5,-35.8C52,-26.1 45.8,-15.8 40.3,-8.5Z"></path><path transform="translate(300 100)" d="M51.4,20.2C52,20.2 52.5,19.8 53.1,19C54.2,17.3 55.6,13.5 56.2,10.2C56.7,6.9 57,2.6 56.9,-2.9C56.8,-8.6 56.7,-13 56.3,-16.1C56.3,-16.3 56.3,-16.4 56.2,-16.6L68.2,-17.4L79.5,-17.8C83.4,-18 85.4,-18.1 85.7,-18.2C86.6,-18.3 87.2,-18.7 87.6,-19.3C88,-20 88.2,-20.7 88.2,-21.4C88.2,-22.5 87.8,-23.4 87.1,-24.1C86.4,-24.8 85.6,-25.1 84.7,-25L55.6,-22.8C61.3,-30.3 64.9,-35.1 66.8,-37.4C68,-38.7 69,-39.7 69.8,-40.5C70.4,-41.1 70.9,-41.7 71.3,-42.2C71.7,-42.7 71.9,-43.1 71.9,-43.3C72,-43.7 71.7,-44.1 71,-44.7C70.3,-45.3 69.4,-45.8 68.5,-46.2C66.6,-47.1 64.7,-47.7 63,-47.8C62.4,-47.2 61.7,-46.8 61,-46.5C60.4,-46.2 59.6,-46 58.7,-45.9C57.9,-45.8 57.3,-45.7 57,-45.7C47.5,-44.3 34,-43.3 26.1,-43L25.5,-41.8C26,-41.4 26.6,-40.8 27.4,-40.2C28.6,-39 29.5,-38.2 29.9,-37.8C30.1,-37.7 30.4,-37.4 30.9,-37.1C31.4,-36.7 32,-36.5 32.7,-36.5L33.1,-36.5L48.3,-38.2C55.6,-39.2 59.5,-39.7 60,-40C59.9,-39.5 59,-37.7 57.2,-34.6C55.8,-32.3 54.4,-30 53,-27.8C51.9,-30 50.5,-32.2 48.5,-34.8L45.2,-33C46.5,-30.7 47.7,-27.5 48.8,-23.4C48.9,-23 49,-22.6 49.1,-22.2L18.9,-19.6C17.3,-19.5 15.3,-19.5 12.8,-19.5L12.6,-18.2L16.3,-14.4C17.1,-13.6 17.9,-13.2 18.9,-13.2L19.5,-13.2C24.3,-13.8 29.6,-14.4 35.5,-14.9C40.1,-15.3 44.9,-15.7 50.2,-16.1C50.4,-13.9 50.6,-11.5 50.7,-8.9L50.8,-4.6C50.9,-0.2 50.6,3.3 49.9,5.7C49.4,7.7 48.9,7.6 47.9,7.1C46.4,6.2 40.3,2.9 38.3,1.7L36,4.5L45.6,15C48.5,18.1 50.6,20.3 51.4,20.2ZM14.4,-43.3C14.4,-42.4 14.7,-41.6 15.3,-41C16,-40.5 16.7,-40.3 17.4,-40.3C19.1,-40.3 20.5,-41.5 21.7,-44C22.7,-46.1 23.3,-48.4 23.5,-50.9C31.9,-51.7 42.1,-52.5 54.7,-53.6C69,-54.8 76.5,-55.4 77.2,-55.6C76.8,-54.3 75,-50.7 73.7,-48.3L77.4,-46.1L80.7,-50.4C81.6,-51.6 84.3,-55.1 86.6,-57.2C87.7,-58.4 88.3,-59 88.3,-59.1C88.3,-59.5 88.1,-60 87.7,-60.4C87.3,-60.8 86.7,-61.4 85.8,-62C84,-63.1 82.1,-63.8 80.3,-64.1C79.4,-63 78.5,-62.4 77.4,-62.1C76.3,-61.7 74.7,-61.5 72.7,-61.3L66,-60.7L54.6,-59.8C55.9,-60.4 56.7,-61.3 56.8,-62.8C56.8,-64.3 56.3,-66 55.1,-67.9C54,-69.8 52.5,-71.6 50.6,-73.1L47.9,-75.1L44.4,-77.8L42.4,-76L46.1,-69.8L47.5,-67.2C49,-64.5 50.2,-62.5 51.2,-61.2C51.9,-60.4 52.6,-59.9 53.2,-59.7C50.7,-59.5 47.9,-59.3 44.8,-59C36.3,-58.2 29.4,-57.7 23.4,-57.2L23.1,-61.5L22.8,-64.1L21.2,-64.3L17.7,-54.1L16.8,-51.6C16,-49.7 15.4,-48.1 15,-46.8C14.6,-45.4 14.4,-44.3 14.4,-43.3Z"></path><path transform="translate(400 100)" d="M42.8,-34.5L61.5,-36.1C61.5,-14.7 61.4,11 61.4,18.2L65.4,18.2C67,18.2 68.4,17.3 68.4,15.3C68.6,7.6 68.7,-16.6 68.8,-36.6C77.9,-37.3 86.9,-38 92.6,-38.3C94.9,-38.5 95.9,-40.1 95.9,-41.6C95.9,-44.5 93.4,-45.5 91.6,-45.3C87.8,-45 78.7,-44.2 68.8,-43.3C68.9,-52.3 68.9,-59.8 68.9,-63.5C68.9,-68.2 69.1,-69.7 69,-72.4C68.9,-75.1 63,-76.4 59.9,-77.2L58.8,-76C59.4,-75.1 61.3,-73 61.4,-67C61.5,-65.3 61.5,-55.3 61.5,-42.7C50.6,-41.7 40.1,-40.8 35.9,-40.8L35.2,-39.5C36.1,-38.6 37.6,-37.4 39.8,-35.7C40.9,-35 41.9,-34.4 42.8,-34.5ZM2.4,-39.3L5.6,-36.1C6.7,-35 7.5,-34.5 9,-34.7L22.2,-35.9L21.3,-1.4C21.3,0.3 20.8,3.9 17.4,4.6L17.2,5.5C17.1,5.7 20,9 21.9,10.9C22.6,11.5 25.9,11.2 27,7.6L42.8,-9.1L40.6,-12.2L27.6,-2C28,-12.7 28.6,-31.3 29.2,-34.8C30,-39 31.2,-40.5 31.2,-41.1C31.2,-41.7 29.9,-42.6 27.5,-43.5C25.5,-44.2 23.5,-44.3 23.5,-44.3C22.7,-43.6 21.7,-42.2 18.7,-41.9C15.2,-41.5 9.6,-41 2.7,-40.5L2.4,-39.3ZM15.1,-71.5L20.8,-63.8C23.7,-59.8 27.8,-52.7 31,-53.9C36.3,-56 32.4,-63.7 25.4,-68.2C20.7,-71.3 19.1,-72.3 16.8,-73.3L15.1,-71.5Z"></path><path transform="translate(500 100)" d="M18.8,-33.1C22.7,-34.1 26.8,-35.1 30.9,-36.1C31.9,-29.4 33.3,-22.9 35.2,-17C27.3,-10.9 17.8,-5.6 10.1,-2.1L11.6,1.9C20,-0.8 28.8,-5.6 37.3,-11.3C42.2,0.2 49.9,9.2 63,13.8C65.7,14.8 65.4,13 64.9,9.6L61.6,-12.5L58.3,-12.5L57.5,0.6C57.4,2.3 57.7,3.5 56.2,2.6C50.4,-1 46.1,-7.6 43,-15.4L45,-16.9C49.7,-20.4 52.9,-23.3 54.8,-25.6C56.4,-27.8 57.1,-29 56.2,-31.5C55.4,-33.3 54.6,-35.9 52.8,-38.9L51.1,-38.4C51,-36.6 50.4,-34.7 49.5,-32.8C47.6,-29 44.5,-25.3 40.8,-21.7C39.2,-26.9 38,-32.4 37.1,-37.7C45.8,-39.8 53.5,-41.7 57.2,-42.5C59.5,-43 60,-45.1 59.7,-46.4C59.3,-48.6 56.8,-49.2 55.1,-49C49.8,-47.6 43.3,-45.9 36.2,-44.1C34.8,-55.2 34.7,-64.6 34.7,-67.7C34.7,-68.8 35.1,-70.2 34.2,-71.3C33.2,-72.6 28.7,-74.7 24.8,-75.8L23.1,-73.9C26.3,-70.2 27.3,-68.4 27.6,-65.2C28.4,-57.5 29,-49.9 30,-42.5C23.5,-41 16.8,-39.5 10.4,-38.3L10,-37L15,-33.9C16.3,-33.1 17.1,-32.8 18.8,-33.1ZM38.2,-66.6L44.1,-61.6C45.8,-60.2 52.6,-52.9 55.5,-55.1C57.7,-57 56.8,-60.7 52.9,-63.3C48.3,-66.2 42.3,-68.3 39.5,-68.8L38.2,-66.6ZM64,-57.3C64.5,-56.4 66.2,-54.3 66.4,-48.3C66.8,-43.6 66.8,-24.3 66.8,-12L70.1,-12.1C71.8,-12.2 73,-12.7 73.1,-14.9C73.3,-26.9 73.2,-33 73.4,-45C73.4,-49.7 73.5,-51.1 73.4,-53.8C73.5,-56.4 68.1,-57.6 64.9,-58.5L64,-57.3ZM67.6,0.7C67.6,0.7 74.6,8.2 78.9,13.5C80.3,15.2 82.7,18.3 84.4,18.2C86.2,18.1 87.4,15.5 87.6,12.3C88.1,6 88.7,-68.6 88.7,-72.7C88.7,-73.4 88.6,-75.3 84.2,-76.1C81.3,-76.7 79.3,-77 76.8,-77.2L76.4,-75.3C77.9,-74.5 78.7,-74.1 80.2,-71.8C81.3,-70.2 81.6,-67.5 81.6,-64.5C81.6,-58.9 81.4,1.5 81.3,4C81.3,4.8 80.9,5.1 80.3,4.7C76.6,2.2 70,-2.6 70,-2.6L67.6,0.7Z"></path><path transform="translate(0 200)" d="M10.9,-61L22.6,-61.5C22.6,-45.8 22.4,-12.2 21.8,0.7L23.6,0.7C25.7,0.4 27.8,-0.1 30,-0.5L30.6,-61.8L50.8,-62.2L51.5,-64.3L43.3,-68.2C34.8,-67.3 20.7,-67.1 10.6,-67.1L1,-67.8L0.3,-66L5.6,-62.3C6.5,-61.7 7.4,-61.2 8.2,-61C8.6,-60.9 10,-61 10.9,-61Z"></path><path transform="translate(52 200)" d="M8.7,1.3L10.2,1.3C12.3,1 13.8,0.5 16,0.1L16.4,-27.7C18.1,-32.8 22.7,-36.2 25.7,-37.9C29.2,-39.9 39.3,-40.4 39.2,-31.8L38.8,1.3L40.3,1.3C42.4,1 44,0.5 46.2,0.1C46.3,-11.4 46.6,-24.9 46.6,-32C46.6,-38.6 43.2,-45.5 33.1,-45.5C23.6,-45.5 18.7,-39.7 16.6,-36.5L17,-63.8C17.1,-67.7 16.6,-68.3 13.8,-69.1C10.8,-70 5.5,-70 5.5,-70L4.9,-67.7C4.9,-67.7 9.7,-66 9.6,-58.7C9.7,-44 9.3,-12.2 8.7,1.3Z"></path><path transform="translate(106 200)" d="M24.9,1.4C37.1,1.4 41.6,-5 43.2,-9.6L40.7,-11.4C40.7,-11.4 36.1,-4.5 26.7,-4.5C16.1,-4.5 11.7,-12.6 12.1,-23.4C13.5,-22.2 15.4,-20.8 16.1,-20.3C17.1,-19.5 17.3,-19.4 18.3,-19.4C19.4,-19.4 34,-18 39.9,-26.3C44.7,-33.1 43,-46 25.8,-46.5C8.1,-46.5 4.3,-31 4.3,-21.2C4.3,-12.4 9.8,1.4 24.9,1.4ZM12.2,-25.6C13.1,-35.3 18.5,-41 25.7,-41.1C33.3,-41.2 35,-35.5 34.5,-32.1C33.9,-28.9 31.4,-22.9 12.2,-25.6Z"></path><path transform="translate(153 200)" d=""></path><path transform="translate(183 200)" d="M9.5,0.8L11,0.8C13.1,0.5 15,-0 17.2,-0.4L18.1,-59.9C20.6,-62.3 24.2,-63.7 29.1,-63.9C35.6,-64.1 42.6,-58.8 42.4,-49.6C42.3,-44.2 40.1,-34.1 21.1,-33.5L23,-29.9C31,-29.6 48,-32.6 50.2,-47C52.2,-60.2 42.3,-67.3 34.6,-68.2C28.6,-68.9 22.5,-67.1 18.1,-64.7C17.8,-66.9 16.7,-67.4 14.5,-68.1C11.5,-69 4.7,-69 4.7,-69L4.1,-67.7C4.1,-67.7 9.7,-66.8 10.3,-56.5C11,-42.4 10.1,-12.7 9.5,0.8Z"></path><path transform="translate(236 200)" d="M16.3,0.1L16.6,-26.6L18.5,-29.5C26,-40.1 33.3,-39.5 37.7,-37.5L39.2,-38.4C38.9,-39.6 36.5,-43.3 34.8,-45.4C34,-46.3 33.8,-46.4 32.4,-46.3C30,-46.1 23,-43.4 16.9,-35L17,-39.8C17.1,-43.7 16.6,-44.3 13.8,-45.1C10.8,-46 5.5,-46 5.5,-46L4.9,-43.7C4.9,-43.7 9.7,-42 9.6,-34.7C9.7,-20 9.3,-12.2 8.7,1.3L10.2,1.3C12.3,1 14.1,0.5 16.3,0.1Z"></path><path transform="translate(275 200)" d="M20.7,-38.1C23.2,-39.7 29.4,-42.6 33.6,-44.9C34.5,-45.4 34.6,-46.3 33.8,-47.2C32.1,-48.9 28,-51 25.3,-51.5L24.4,-50.3C25.6,-49.3 25.4,-48.2 24.7,-46.7C23.8,-44.9 21.2,-43.2 18.3,-41.7C9.3,-37.1 3.9,-30.5 4,-19.2C4,-6.1 12.3,2.1 24.6,1.8C40.3,1.5 47.5,-9.5 47.4,-22.5C47.4,-32.9 42.3,-38.1 33.1,-40.2L31.1,-37.4C37.6,-34.8 39.4,-27.3 39.5,-21.4C39.4,-12.8 35.3,-3.5 25.2,-3.4C15.2,-3.3 11.6,-12.4 11.5,-20.3C11.6,-28.6 14.2,-34 20.7,-38.1Z"></path><path transform="translate(327 200)" d="M21.1,-6.7C21.9,-19.7 21.5,-31.6 21.9,-41.2C22,-43.7 17,-46.1 13.9,-46.7L13,-45.5C13.5,-44.7 14.1,-41.2 14.2,-37L14.1,-13.9C14.1,-6.2 13.6,1.2 12.1,7.2C10.9,12.1 8.2,17.7 2.7,17.9C-2,18.1 -3.7,14.7 -3.3,9.4C-6.3,8.5 -10.5,10.4 -10.9,12.9C-11.6,17 -7.5,23.8 0.5,23.7C6.7,23.7 13.1,20 16.4,14.2C20,7.7 20.7,0.3 21.1,-6.7ZM11.6,-65.1C11.6,-62.2 14.1,-59.7 17.3,-59.7C20.5,-59.7 22.9,-62.2 22.9,-65.1C22.9,-68.3 20.5,-70.8 17.3,-70.8C14.1,-70.8 11.6,-68.3 11.6,-65.1Z"></path><path transform="translate(357 200)" d="M24.9,1.4C37.1,1.4 41.6,-5 43.2,-9.6L40.7,-11.4C40.7,-11.4 36.1,-4.5 26.7,-4.5C16.1,-4.5 11.7,-12.6 12.1,-23.4C13.5,-22.2 15.4,-20.8 16.1,-20.3C17.1,-19.5 17.3,-19.4 18.3,-19.4C19.4,-19.4 34,-18 39.9,-26.3C44.7,-33.1 43,-46 25.8,-46.5C8.1,-46.5 4.3,-31 4.3,-21.2C4.3,-12.4 9.8,1.4 24.9,1.4ZM12.2,-25.6C13.1,-35.3 18.5,-41 25.7,-41.1C33.3,-41.2 35,-35.5 34.5,-32.1C33.9,-28.9 31.4,-22.9 12.2,-25.6Z"></path><path transform="translate(404 200)" d="M23.5,-46.2C8.1,-45.7 4.2,-31.1 4.2,-21.3C4.2,-12.5 8.6,1.1 23.7,1.1C35.9,1.1 40.2,-4.9 42.8,-9.5L40.3,-11.4C40.3,-11.4 35.9,-4.9 26.5,-4.9C15.9,-4.9 11.5,-14.8 11.9,-25.7C12.2,-35.5 16.7,-41.7 26.1,-41.7C30,-41.7 33.8,-39.1 33.8,-34.1C37.4,-32.8 44.2,-37.3 39.2,-42C35.2,-45.7 29,-46.4 23.5,-46.2Z"></path><path transform="translate(450 200)" d="M20.7,-44.1L21.2,-60.4C21.3,-63.1 17.2,-64.5 13.8,-65.7L12.7,-64.6C13.4,-61.7 13.5,-57.6 13.5,-54.7L13.3,-43.9C11.4,-43.8 9.7,-43.9 7.9,-43.9L1.2,-44.1L0.7,-43L4.7,-39.3C5.4,-38.7 6,-38.2 6.5,-38C6.8,-37.9 7.5,-37.9 8.3,-37.9L13.1,-38L12.4,-18.9C12.1,-10.6 11.3,-2.8 17.2,0.1C23.8,3.3 32.1,-0.8 34.7,-3.9L33.6,-7.6C33.6,-7.6 29.2,-5.9 27.3,-5.3C23.9,-4.5 19.6,-5.7 19.8,-12.1C19.9,-18.1 20.3,-28.8 20.6,-38.1L35.6,-38.4L36.1,-40.6L29.1,-44.8C26.6,-44.5 23.8,-44.2 20.7,-44.1Z"></path><path transform="translate(487 200)" d=""></path><path transform="translate(517 200)" d="M9.7,0.8L11.2,0.8C13.3,0.5 15.3,-0 17.5,-0.4L17.9,-32.3L46.1,-32.8L46.7,-35.2L40.3,-39.1C37.9,-38.9 27.7,-38.5 18,-38L18.4,-61.6L47.5,-62.1L48.1,-64.5L41.8,-68.4L16.9,-67.3C16.4,-67.6 15.7,-67.8 14.8,-68.1C11.8,-69 5,-69 5,-69L4.4,-67.7C4.4,-67.7 10,-66.8 10.6,-56.5C10.7,-41.8 10.3,-12.7 9.7,0.8Z"></path><path transform="translate(568 200)" d="M20.7,-38.1C23.2,-39.7 29.4,-42.6 33.6,-44.9C34.5,-45.4 34.6,-46.3 33.8,-47.2C32.1,-48.9 28,-51 25.3,-51.5L24.4,-50.3C25.6,-49.3 25.4,-48.2 24.7,-46.7C23.8,-44.9 21.2,-43.2 18.3,-41.7C9.3,-37.1 3.9,-30.5 4,-19.2C4,-6.1 12.3,2.1 24.6,1.8C40.3,1.5 47.5,-9.5 47.4,-22.5C47.4,-32.9 42.3,-38.1 33.1,-40.2L31.1,-37.4C37.6,-34.8 39.4,-27.3 39.5,-21.4C39.4,-12.8 35.3,-3.5 25.2,-3.4C15.2,-3.3 11.6,-12.4 11.5,-20.3C11.6,-28.6 14.2,-34 20.7,-38.1Z"></path><path transform="translate(620 200)" d="M16.3,0.1L16.6,-26.6L18.5,-29.5C26,-40.1 33.3,-39.5 37.7,-37.5L39.2,-38.4C38.9,-39.6 36.5,-43.3 34.8,-45.4C34,-46.3 33.8,-46.4 32.4,-46.3C30,-46.1 23,-43.4 16.9,-35L17,-39.8C17.1,-43.7 16.6,-44.3 13.8,-45.1C10.8,-46 5.5,-46 5.5,-46L4.9,-43.7C4.9,-43.7 9.7,-42 9.6,-34.7C9.7,-20 9.3,-12.2 8.7,1.3L10.2,1.3C12.3,1 14.1,0.5 16.3,0.1Z"></path><path transform="translate(659 200)" d=""></path><path transform="translate(689 200)" d="M10.9,-68.7L1.7,-67.4L1.7,-64C6.3,-63.8 9.8,-63.6 11.6,-59.9C13.8,-55.5 20,-26.4 25.9,1.4L27.6,1.5L33.1,0.9C41.2,-22.7 43.5,-35.6 47.3,-48.5C51.5,-28.4 54.9,-13.3 57.4,0.9L59.2,1L64.4,0.4C70.4,-13.9 78,-36.8 81.3,-47.3C82.8,-51.7 85.8,-61.5 84.7,-65.2C84.3,-66.6 83.1,-67.5 81.9,-67.8C79.3,-68.6 74.7,-69.1 73.5,-68.9L72.9,-67.2C76.4,-64.1 79,-60.2 76.1,-49.2C73.7,-40.2 66.6,-18.8 62.8,-9.5C58.9,-27.8 55.1,-46.7 50.3,-66.8L46.6,-66.3C41.4,-48.2 36.6,-26.9 31.1,-9.2L19.2,-63.6C18.2,-68.2 14.1,-69.1 10.9,-68.7Z"></path><path transform="translate(776 200)" d="M24.9,1.4C37.1,1.4 41.6,-5 43.2,-9.6L40.7,-11.4C40.7,-11.4 36.1,-4.5 26.7,-4.5C16.1,-4.5 11.7,-12.6 12.1,-23.4C13.5,-22.2 15.4,-20.8 16.1,-20.3C17.1,-19.5 17.3,-19.4 18.3,-19.4C19.4,-19.4 34,-18 39.9,-26.3C44.7,-33.1 43,-46 25.8,-46.5C8.1,-46.5 4.3,-31 4.3,-21.2C4.3,-12.4 9.8,1.4 24.9,1.4ZM12.2,-25.6C13.1,-35.3 18.5,-41 25.7,-41.1C33.3,-41.2 35,-35.5 34.5,-32.1C33.9,-28.9 31.4,-22.9 12.2,-25.6Z"></path><path transform="translate(823 200)" d="M8.7,0.8L10.2,0.8C12.3,0.5 13.8,-0 16,-0.4L16,-2.8C17.6,-0.8 20.2,1.2 25.6,1.2C37.7,1.2 46.5,-6.1 47.5,-20.5C48.7,-36 42.4,-45.7 30.7,-45.7C23.4,-45.7 19.3,-42.2 16.6,-39L17,-63.8C17.1,-67.7 16.6,-68.3 13.8,-69.1C10.8,-70 5.5,-70 5.5,-70L4.9,-67.7C4.9,-67.7 9.7,-66 9.6,-58.7C9.7,-44 9.3,-12.7 8.7,0.8ZM16.1,-8.2L16.5,-33.5C19,-37.3 23,-40.2 28.7,-40.2C37.7,-40.2 40.1,-31.3 40.3,-23.8C40.5,-17.2 39,-7.7 30.1,-4.8C24.5,-2.9 18.1,-4.3 16.1,-8.2Z"></path></svg>